Chammak challo 1920x1080 by RoYStaR

General
Complete name                    : D:\\TOORENT FOR UPLOAD\\Chammak challo 1920x1080 by RoYStaR\\Chammak challo 1920x1080 by RoYStaR.mp4
Format                           : MPEG-4
Format profile                   : Base Media / Version 2
Codec ID                         : mp42
File size                        : 97.4 MiB
Duration                         : 2mn 16s
Overall bit rate                 : 5 968 Kbps

Video
ID                               : 1
Format                           : AVC
Format/Info                      : Advanced Video Codec
Format profile                   : High@L4.0
Format settings, CABAC           : Yes
Format settings, ReFrames        : 1 frame
Format settings, GOP             : M=1, N=44
Codec ID                         : avc1
Codec ID/Info                    : Advanced Video Coding
Duration                         : 2mn 16s
Bit rate                         : 5 812 Kbps
Maximum bit rate                 : 9 907 Kbps
Width                            : 1 920 pixels
Height                           : 1 080 pixels
Display aspect ratio             : 16:9
Frame rate mode                  : Constant
Frame rate                       : 25.000 fps
Color space                      : YUV
Chroma subsampling               : 4:2:0
Bit depth                        : 8 bits
Scan type                        : Progressive
Bits/(Pixel*Frame)               : 0.112
Stream size                      : 94.8 MiB (97%)
Tagged date                      : UTC 2011-09-19 13:18:43

Audio
ID                               : 2
Format                           : AAC
Format/Info                      : Advanced Audio Codec
Format profile                   : LC
Codec ID                         : 40
Duration                         : 2mn 16s
Bit rate mode                    : Variable
Bit rate                         : 152 Kbps
Maximum bit rate                 : 173 Kbps
Channel(s)                       : 2 channels
Channel positions                : Front: L R
Sampling rate                    : 44.1 KHz
Compression mode                 : Lossy
Stream size                      : 2.48 MiB (3%)


Screenshot available on the blog.. 